<svg width="24" height="24" viewBox="0 0 24 24" fill="none" xmlns="http://www.w3.org/2000/svg">
<g clip-path="url(#clip0_78_548)">
<path d="M19.5 4.8H17C17 2.148 14.7625 0 12 0C9.2375 0 7 2.148 7 4.8H4.5C3.125 4.8 2 5.88 2 7.2V21.6C2 22.92 3.125 24 4.5 24H19.5C20.875 24 22 22.92 22 21.6V7.2C22 5.88 20.875 4.8 19.5 4.8ZM12 2.4C13.375 2.4 14.5 3.48 14.5 4.8H9.5C9.5 3.48 10.625 2.4 12 2.4ZM19.5 21.6H4.5V7.2H7V9.6C7 10.26 7.5625 10.8 8.25 10.8C8.9375 10.8 9.5 10.26 9.5 9.6V7.2H14.5V9.6C14.5 10.26 15.0625 10.8 15.75 10.8C16.4375 10.8 17 10.26 17 9.6V7.2H19.5V21.6Z" fill="#666666"/>
</g>
<defs>
<clipPath id="clip0_78_548">
<rect width="24" height="24" fill="white"/>
</clipPath>
</defs>
</svg>
