<svg width="24" height="24" viewBox="0 0 24 24" fill="none" xmlns="http://www.w3.org/2000/svg">
<path d="M10 18C9.45 18 8.97933 17.8043 8.588 17.413C8.19667 17.0217 8.00067 16.5507 8 16V14.75C7.05 14.1 6.31267 13.2667 5.788 12.25C5.26333 11.2333 5.00067 10.15 5 9C5 7.05 5.67933 5.396 7.038 4.038C8.39667 2.68 10.0507 2.00067 12 2C13.9493 1.99933 15.6037 2.67867 16.963 4.038C18.3223 5.39733 19.0013 7.05133 19 9C19 10.15 18.7373 11.2293 18.212 12.238C17.6867 13.2467 16.9493 14.084 16 14.75V16C16 16.55 15.8043 17.021 15.413 17.413C15.0217 17.805 14.5507 18.0007 14 18H10ZM10 16H14V13.7L14.85 13.1C15.5333 12.6333 16.0627 12.0377 16.438 11.313C16.8133 10.5883 17.0007 9.81733 17 9C17 7.61667 16.5123 6.43767 15.537 5.463C14.5617 4.48833 13.3827 4.00067 12 4C10.6173 3.99933 9.43833 4.487 8.463 5.463C7.48767 6.439 7 7.618 7 9C7 9.81667 7.18767 10.5877 7.563 11.313C7.93833 12.0383 8.46733 12.634 9.15 13.1L10 13.7V16ZM10 22C9.71667 22 9.47933 21.904 9.288 21.712C9.09667 21.52 9.00067 21.2827 9 21V20H15V21C15 21.2833 14.904 21.521 14.712 21.713C14.52 21.905 14.2827 22.0007 14 22H10Z" fill="#D80027"/>
</svg>
